<?xml version="1.0" standalone="no"?>
<!DOCTYPE svg PUBLIC "-//W3C//DTD SVG 20010904//EN"
 "http://www.w3.org/TR/2001/REC-SVG-20010904/DTD/svg10.dtd">
<svg version="1.0" xmlns="http://www.w3.org/2000/svg"
 width="555.000000pt" height="555.000000pt" viewBox="0 0 555.000000 555.000000"
 preserveAspectRatio="xMidYMid meet">
<metadata>
Created by potrace 1.14, written by Peter Selinger 2001-2017
</metadata>
<g transform="translate(0.000000,555.000000) scale(0.100000,-0.100000)"
fill="#000000" stroke="none">
<path d="M1570 5060 c-14 -11 -29 -18 -35 -16 -5 2 -19 -1 -30 -6 -18 -8 -18
-8 3 -4 28 5 28 -2 -3 -44 -14 -19 -30 -50 -36 -70 -7 -22 -14 -240 -20 -590
-5 -305 -11 -571 -13 -590 -2 -19 -9 -89 -15 -155 -6 -66 -16 -154 -22 -195
-6 -41 -13 -90 -15 -110 -3 -19 -9 -50 -15 -68 -9 -27 -13 -31 -25 -21 -12 10
-17 8 -29 -7 -13 -18 -14 -18 -22 5 -9 21 -11 22 -25 7 -19 -18 -38 -21 -38
-6 0 6 -7 10 -15 10 -8 0 -15 -4 -15 -9 0 -5 -8 -8 -17 -7 -13 1 -17 -5 -15
-19 2 -16 1 -17 -7 -6 -16 24 -68 17 -99 -12 -26 -25 -29 -26 -44 -10 -16 15
-17 15 -11 -5 7 -29 -2 -28 -33 3 -28 29 -45 34 -21 7 12 -13 14 -26 9 -47 -5
-16 -11 -25 -15 -19 -9 15 -69 5 -63 -11 3 -8 -2 -11 -14 -8 -10 3 -21 0 -24
-6 -4 -6 -2 -11 3 -11 6 0 11 -4 11 -10 0 -5 -12 -10 -26 -10 -19 0 -25 -4
-20 -15 3 -9 0 -15 -9 -15 -8 0 -18 -17 -23 -42 -8 -36 -10 -18 -12 97 -11
634 -17 443 -21 -655 -6 -1877 -7 -1747 17 -1800 28 -58 54 -84 114 -115 l49
-25 1840 0 c1837 0 1840 0 1893 21 29 11 67 34 85 51 67 65 63 -70 63 1960 0
1464 3 1838 13 1838 9 0 9 2 0 8 -8 5 -12 89 -15 292 -3 276 -4 287 -27 333
-12 26 -38 59 -57 73 -73 56 -6 54 -1575 54 -1425 0 -1449 0 -1501 -20 -61
-23 -109 -67 -135 -125 -17 -38 -18 -146 -23 -2155 l-5 -2115 -5 1445 c-2 795
-5 1749 -5 2120 l0 675 25 49 c23 45 84 106 120 119 11 4 9 6 -5 6 -11 0 -31
-8 -45 -19z m1800 -291 c164 -2 164 -2 65 -10 -109 -8 -437 -8 -580 0 -78 5
-66 7 95 12 102 3 201 4 220 2 19 -1 109 -4 200 -4z m-1645 -29 c18 -7 18 -9
3 -15 -29 -11 -73 -1 -76 18 -3 15 1 17 25 11 15 -4 37 -10 48 -14z m2922 -5
c-7 -15 -57 -21 -71 -7 -7 7 65 33 73 26 2 -2 1 -10 -2 -19z m-2908 -175 c45
-11 105 -25 134 -31 446 -85 692 -109 1175 -116 390 -6 549 1 872 38 257 29
569 84 713 125 10 3 17 0 17 -9 0 -16 -43 -29 -245 -76 -343 -80 -647 -115
-1095 -127 -521 -14 -1019 33 -1455 138 -175 42 -205 52 -205 68 0 13 -6 13
89 -10z m76 -315 c239 -51 541 -94 775 -111 l105 -8 -60 -9 c-146 -22 -967
105 -983 152 -4 11 2 12 24 6 16 -4 79 -18 139 -30z m2835 26 c0 -15 -9 -18
-126 -45 -284 -66 -731 -123 -852 -110 -35 3 -62 8 -60 9 2 1 71 8 153 14 269
22 649 80 810 125 62 17 75 19 75 7z m-2343 -261 c115 -33 390 -82 563 -101
135 -15 437 -15 565 0 157 19 441 69 545 98 52 14 120 28 150 30 54 3 53 3
-50 -32 -382 -128 -714 -175 -1090 -155 -257 14 -468 55 -735 145 -105 35
-123 43 -93 44 21 1 86 -13 145 -29z m-519 -52 c-25 -24 -48 -50 -50 -58 -3
-8 -8 -12 -12 -8 -13 11 22 65 56 87 52 33 55 25 6 -21z m2752 4 c22 -22 40
-47 40 -57 0 -10 -1 -16 -3 -14 -2 2 -25 28 -52 57 -55 60 -45 70 15 14z
m-2684 0 c5 -5 56 -28 114 -52 111 -45 135 -58 85 -46 -50 12 -225 88 -225 97
0 11 13 12 26 1z m2624 2 c0 -13 -267 -120 -277 -111 -3 3 256 115 270 116 4
1 7 -2 7 -5z m80 -108 c0 -2 -8 -10 -17 -17 -16 -13 -17 -12 -4 4 13 16 21 21
21 13z m-2789 -23 c13 -16 12 -17 -3 -4 -10 7 -18 15 -18 17 0 8 8 3 21 -13z
m248 -103 c190 -48 531 -96 766 -107 77 -3 149 -10 160 -15 31 -13 -302 -1
-450 17 -295 35 -561 94 -582 127 -4 8 0 9 11 5 10 -4 52 -16 95 -27z m2369
16 c-43 -32 -276 -82 -553 -117 -167 -21 -505 -37 -493 -24 4 4 74 12 154 16
281 17 585 59 773 109 126 32 143 35 119 16z m-1538 -216 c145 -14 498 -12
655 5 165 18 182 18 170 6 -13 -12 -147 -38 -260 -51 -115 -13 -402 -13 -525
0 -120 13 -262 40 -275 53 -10 10 25 8 235 -13z m-895 -20 c17 -13 121 -49
217 -75 577 -163 1343 -164 1948 -4 63 17 148 44 187 61 40 16 78 28 85 26 17
-6 -149 -74 -251 -103 -315 -90 -680 -131 -1086 -122 -366 8 -668 52 -923 132
-121 39 -236 88 -226 97 6 7 31 0 49 -12z m-245 0 c0 -5 -9 -14 -20 -20 -11
-6 -18 -15 -15 -21 4 -5 1 -9 -5 -9 -17 0 -23 29 -10 45 14 17 50 20 50 5z
m2924 4 c18 -7 22 -39 6 -49 -5 -3 -10 1 -10 9 0 8 -9 18 -20 21 -11 4 -18 11
-15 16 7 11 17 11 39 3z m-3524 -374 c8 -5 11 -12 7 -17 -5 -4 -11 -3 -15 3
-4 6 -14 14 -22 17 -13 5 -13 5 0 6 8 0 22 -3 30 -9z m740 -51 c11 -8 12 -12
2 -16 -6 -2 -10 -9 -6 -14 8 -13 -10 -11 -31 4 -10 8 -15 19 -11 25 9 15 26
15 46 1z m2650 -3 c0 -7 -7 -19 -15 -26 -13 -11 -18 -10 -30 6 -12 17 -11 20
3 26 27 11 42 9 42 -6z m-2156 -25 c12 -18 208 -80 386 -120 l45 -10 -50 5
c-111 13 -361 89 -395 120 -9 9 -10 14 -3 14 7 0 14 -4 17 -9z m315 -63 c42
-16 60 -26 41 -22 -49 8 -183 67 -188 82 -2 7 12 3 34 -10 21 -12 72 -35 113
-50z m105 6 c26 -9 45 -18 43 -20 -2 -2 -26 3 -53 13 -54 18 -104 49 -104 64
0 6 15 -2 34 -16 18 -14 54 -32 80 -41z m881 47 c-6 -11 -78 -51 -91 -51 -3 0
16 15 42 33 49 33 62 38 49 18z m145 10 c0 -16 -196 -98 -207 -87 -2 2 25 14
61 26 36 12 80 32 98 45 36 26 48 30 48 16z m190 0 c0 -21 -294 -112 -405
-125 -27 -3 -3 5 55 19 117 28 318 93 326 106 7 12 24 11 24 0z m-3035 -11
c-3 -5 -10 -10 -16 -10 -5 0 -9 5 -9 10 0 6 7 10 16 10 8 0 12 -4 9 -10z
m1843 -8 c2 -7 -2 -10 -12 -6 -9 3 -16 11 -16 16 0 13 23 5 28 -10z m85 -2 c3
-11 4 -20 3 -20 -2 0 -11 9 -21 20 -15 17 -16 20 -3 20 9 0 18 -9 21 -20z
m587 17 c0 -2 -10 -12 -21 -23 -22 -19 -22 -19 -8 4 12 19 29 30 29 19z m80
-6 c0 -5 -7 -11 -14 -14 -10 -4 -13 -1 -9 9 6 15 23 19 23 5z m-1349 -95 c85
-20 164 -36 174 -36 10 0 16 -3 12 -6 -20 -21 -517 104 -517 130 0 2 39 -9 88
-24 48 -15 157 -44 243 -64z m2249 84 c-52 -34 -433 -132 -501 -129 -14 1 -4
5 21 11 120 25 411 99 441 112 39 17 61 20 39 6z m-2204 -23 c38 -13 102 -32
142 -42 40 -9 71 -19 68 -22 -7 -7 -205 46 -251 67 -55 25 -41 24 41 -3z
m1899 14 c-13 -13 -199 -67 -255 -75 -25 -3 12 10 82 29 71 18 136 39 145 44
23 13 40 14 28 2z m-242 -398 c-7 -2 -19 -2 -25 0 -7 3 -2 5 12 5 14 0 19 -2
13 -5z m-1573 -20 c-166 -38 -354 -85 -406 -103 -32 -11 -54 -16 -49 -11 16
15 192 69 310 95 61 14 119 27 130 29 11 3 34 5 50 5 17 0 3 -6 -35 -15z m347
11 c-3 -3 -12 -4 -19 -1 -8 3 -5 6 6 6 11 1 17 -2 13 -5z m990 0 c-3 -3 -12
-4 -19 -1 -8 3 -5 6 6 6 11 1 17 -2 13 -5z m422 -19 c137 -28 206 -46 304 -83
88 -32 81 -39 -9 -8 -61 20 -192 53 -394 99 -108 25 -31 19 99 -8z m-1462 9
c-3 -3 -12 -4 -19 -1 -8 3 -5 6 6 6 11 1 17 -2 13 -5z m146 -11 c-7 -2 -19 -2
-25 0 -7 3 -2 5 12 5 14 0 19 -2 13 -5z m804 1 c-3 -3 -12 -4 -19 -1 -8 3 -5
6 6 6 11 1 17 -2 13 -5z m-854 -11 c-7 -2 -19 -2 -25 0 -7 3 -2 5 12 5 14 0
19 -2 13 -5z m900 0 c-7 -2 -19 -2 -25 0 -7 3 -2 5 12 5 14 0 19 -2 13 -5z
m-1253 -33 c-58 -16 -125 -36 -149 -44 -24 -9 -46 -14 -48 -12 -9 9 243 84
282 84 11 0 -27 -12 -85 -28z m215 1 c-112 -31 -213 -67 -233 -83 -7 -6 -15
-8 -18 -5 -17 17 257 114 326 115 14 0 -20 -12 -75 -27z m1257 -21 c110 -37
155 -57 145 -67 -2 -2 -30 8 -63 23 -32 14 -111 41 -174 60 -63 19 -96 32 -72
29 23 -3 97 -23 164 -45z m170 14 c104 -29 142 -43 136 -50 -3 -2 -17 0 -30 7
-14 6 -81 26 -149 45 -68 19 -106 32 -84 28 22 -3 79 -16 127 -30z m-1342 -12
c-41 -15 -92 -38 -113 -51 -20 -12 -37 -18 -37 -12 0 6 10 16 22 22 35 19 171
68 188 68 8 0 -19 -12 -60 -27z m974 12 c26 -9 45 -18 43 -20 -2 -2 -28 5 -58
15 -30 11 -49 20 -43 20 6 1 32 -6 58 -15z m-824 2 c0 -2 -21 -11 -46 -20 -26
-9 -62 -27 -80 -41 -19 -14 -34 -22 -34 -17 0 15 26 33 87 58 58 23 73 28 73
20z m794 -39 c22 -12 42 -28 44 -36 3 -8 -11 -2 -30 12 -19 15 -52 34 -74 42
-31 12 -33 14 -9 9 17 -3 48 -15 69 -27z m141 -9 c25 -12 45 -26 45 -30 0 -12
-6 -10 -57 22 -56 35 -51 39 12 8z m-872 -8 c-3 -11 -12 -20 -21 -20 -13 0
-12 3 3 20 10 11 19 20 21 20 1 0 0 -9 -3 -20z m-96 -17 c-15 -16 -17 -16 -17
-1 0 9 6 18 13 21 20 7 22 -2 4 -20z m673 12 c7 -9 8 -15 2 -15 -5 0 -12 7
-16 15 -3 8 -4 15 -2 15 2 0 9 -7 16 -15z m90 -11 c0 -20 -7 -17 -20 6 -9 16
-8 18 5 14 8 -4 15 -12 15 -20z m-1693 -1 c-4 -3 -2 -12 4 -19 14 -17 -28 -31
-45 -14 -8 8 -6 15 8 26 20 14 45 20 33 7z m2647 -16 c14 -22 2 -31 -31 -22
-15 4 -22 10 -15 12 6 3 12 11 12 20 0 18 20 13 34 -10z m-1017 -228 c213 -17
495 -66 664 -114 101 -29 259 -93 259 -106 0 -10 -17 -5 -85 26 -104 48 -363
110 -600 144 -395 57 -838 52 -1235 -15 -192 -33 -450 -104 -536 -149 -15 -8
-32 -12 -36 -9 -14 9 103 60 224 99 180 57 499 113 733 128 123 8 496 6 612
-4z m-1802 -168 c-3 -6 4 -15 15 -21 11 -6 20 -15 20 -20 0 -15 -36 -12 -50 5
-13 16 -7 45 10 45 6 0 9 -4 5 -9z m2975 -22 c0 -23 -22 -34 -47 -24 -16 6
-16 8 5 18 12 5 22 16 22 24 0 8 5 11 10 8 6 -3 10 -15 10 -26z m-1243 1 c117
-13 273 -43 273 -52 0 -11 -25 -10 -185 7 -157 17 -491 19 -635 5 -196 -19
-255 -23 -245 -13 13 12 166 42 270 52 114 12 425 13 522 1z m-452 -119 c-11
-5 -83 -11 -160 -14 -282 -13 -739 -83 -871 -134 -11 -4 -15 -3 -11 5 24 38
356 104 682 137 144 14 392 18 360 6z m741 -6 c284 -27 572 -79 673 -121 61
-25 26 -25 -70 1 -186 50 -547 100 -794 111 -77 4 -147 10 -155 15 -25 14 174
10 346 -6z m845 -222 c13 -16 12 -17 -3 -4 -17 13 -22 21 -14 21 2 0 10 -8 17
-17z m-1236 -13 c258 -14 504 -63 775 -155 103 -35 104 -35 50 -32 -30 2 -100
16 -155 31 -116 30 -393 80 -545 96 -133 15 -413 15 -553 0 -172 -17 -453 -67
-570 -100 -59 -16 -124 -30 -145 -29 -30 1 -12 9 94 45 258 86 480 130 714
143 80 4 150 9 155 9 6 1 87 -3 180 -8z m-1226 -15 c-3 -2 -54 -25 -114 -50
-61 -25 -116 -49 -122 -52 -7 -3 -13 -1 -13 4 0 8 70 41 175 82 48 18 84 26
74 16z m2212 -14 c76 -26 193 -80 187 -86 -3 -3 -63 19 -134 49 -130 55 -153
72 -53 37z m-2546 -31 c4 -11 24 -34 46 -52 47 -38 44 -49 -6 -18 -42 26 -81
90 -56 90 5 0 13 -9 16 -20z m2835 3 c0 -17 -74 -93 -91 -93 -9 0 78 107 89
109 1 1 2 -6 2 -16z m-1935 -212 l50 -7 -80 -7 c-244 -21 -325 -30 -475 -53
-91 -14 -237 -41 -324 -59 -153 -33 -181 -36 -160 -16 22 21 420 97 659 125
224 27 252 28 330 17z m1385 -22 c230 -29 593 -100 614 -120 19 -18 -3 -20
-60 -5 -191 48 -587 111 -775 122 -57 3 -113 8 -124 9 -11 2 -33 5 -50 6 -25
2 -22 3 15 9 59 10 189 3 380 -21z m-550 -229 c357 -18 613 -51 898 -116 224
-51 272 -65 272 -81 0 -9 -7 -12 -17 -9 -94 29 -434 91 -632 116 -354 43 -544
53 -946 47 -370 -5 -457 -11 -715 -43 -226 -28 -542 -85 -669 -120 -39 -11
-20 18 22 32 64 22 338 83 490 109 376 64 851 87 1297 65z m-1745 -360 c3 -5
-7 -12 -22 -16 -15 -3 -36 -8 -45 -11 -18 -4 -25 16 -11 30 10 11 71 8 78 -3z
m2912 -5 c3 -9 4 -18 1 -20 -8 -9 -78 16 -73 26 10 15 65 11 72 -6z m-1282
-22 l160 -8 -175 -5 c-212 -6 -631 2 -500 10 169 10 358 11 515 3z m-1842
-198 c19 -37 69 -85 105 -101 15 -7 21 -13 14 -13 -54 -4 -153 109 -151 171 1
22 1 22 8 -2 5 -14 15 -39 24 -55z"/>
<path d="M809 5013 c-13 -16 -12 -17 4 -4 9 7 17 15 17 17 0 8 -8 3 -21 -13z"/>
<path d="M1297 4960 c42 -48 53 -92 53 -214 0 -74 4 -117 11 -122 8 -5 10 28
7 122 -5 140 -13 169 -65 214 l-28 25 22 -25z"/>
<path d="M933 4954 c-62 -31 -73 -63 -73 -224 0 -220 16 -235 245 -235 118 0
145 3 168 18 56 37 61 55 59 221 -3 168 -8 186 -73 218 -47 25 -278 25 -326 2z
m315 -46 c17 -17 15 -43 -4 -59 -31 -26 -70 25 -44 56 15 18 32 19 48 3z"/>
<path d="M849 4913 c-13 -16 -12 -17 4 -4 9 7 17 15 17 17 0 8 -8 3 -21 -13z"/>
<path d="M830 4596 c0 -30 29 -74 67 -103 35 -27 41 -28 171 -31 75 -2 151 -1
169 3 35 6 113 68 113 89 0 6 -10 -2 -21 -17 -38 -50 -64 -57 -226 -57 -135 0
-152 2 -187 23 -25 14 -48 39 -63 66 -13 24 -23 36 -23 27z"/>
<path d="M1351 4584 c0 -11 3 -14 6 -6 3 7 2 16 -1 19 -3 4 -6 -2 -5 -13z"/>
<path d="M860 3121 c0 -5 5 -13 10 -16 6 -3 10 -2 10 4 0 5 -4 13 -10 16 -5 3
-10 2 -10 -4z"/>
<path d="M925 3110 c3 -5 11 -10 16 -10 6 0 7 5 4 10 -3 6 -11 10 -16 10 -6 0
-7 -4 -4 -10z"/>
<path d="M826 3083 c-6 -14 -5 -15 5 -6 7 7 10 15 7 18 -3 3 -9 -2 -12 -12z"/>
</g>
</svg>
